<svg width="32" height="32" viewBox="0 0 32 32" fill="none" xmlns="http://www.w3.org/2000/svg">
<path d="M15.9895 8.13884C15.4038 8.67677 14.7071 9.7372 13.9986 10.8527C13.6029 10.351 13.155 9.90795 12.647 9.53242C13.2796 7.65522 14.4631 5.81556 16 4H15.979C17.5159 5.81556 18.6993 7.65522 19.332 9.53242C18.8239 9.90794 18.376 10.351 17.9803 10.8527C17.2719 9.7372 16.5752 8.67677 15.9895 8.13884Z" fill="#763AED"/>
<path d="M15.9999 19.738C14.3339 19.738 12.7899 18.5113 13.0241 16.406C13.2887 14.028 14.2939 11.8954 15.9999 10.0249C17.7059 11.8954 18.7111 14.028 18.9757 16.406C19.2099 18.5113 17.362 19.738 15.9999 19.738Z" fill="#763AED"/>
<path d="M15.9981 20.9116C17.7004 20.9712 18.6295 21.9649 18.3016 24.1493C18.0736 25.6688 17.1849 27.2286 15.9981 28.833C14.8113 27.2286 13.9227 25.6688 13.6946 24.1493C13.3668 21.9649 14.2958 20.9712 15.9981 20.9116Z" fill="#763AED"/>
<path d="M18.3784 11.7538C19.0671 10.7603 19.8627 10.072 20.736 9.60577C21.7892 12.544 21.5913 14.8376 20.1283 16.4794C19.6139 14.683 19.0519 13.0393 18.3784 11.7538Z" fill="#763AED"/>
<path d="M17.1318 20.3772C18.7645 20.1422 19.7577 19.0349 20.1809 17.15C21.3525 16.8958 22.2465 16.2613 22.9367 15.3477C23.4082 19.6752 19.3637 22.0747 17.1318 20.3772Z" fill="#763AED"/>
<path d="M21.7734 15.1486L23.4918 13.9541C23.7068 14.888 23.7403 15.914 23.649 17.0033C26.1827 14.6486 27.4437 11.5657 27.0963 7.56253C25.2003 8.49783 23.4658 9.81158 21.8887 11.4709C22.134 12.6357 22.0639 13.8684 21.7734 15.1486Z" fill="#763AED"/>
<path d="M19.2378 21.5193C21.7801 20.756 23.7018 19.135 25.0112 16.668C26.517 15.869 27.9125 15.6953 29.1815 16.2384C26.6561 20.8741 22.9994 22.7767 19.2378 21.5193Z" fill="#763AED"/>
<path d="M22.9785 22.127C24.4493 22.3034 25.6327 21.589 26.6354 20.3143C28.9374 20.6372 30.904 21.1871 32.0001 22.3261C28.008 23.7407 24.6649 24.3462 22.9785 22.127Z" fill="#763AED"/>
<path d="M19.0386 21.7289C18.562 21.9228 18.444 22.4524 18.7033 22.8815C18.9184 23.3812 19.5305 24.7845 21.0872 25.6543C22.1502 26.2481 23.4715 26.5236 25.0215 26.5174C24.6342 25.2021 23.8899 23.6988 22.8421 22.9653C21.9446 22.337 20.3274 23.1015 19.0386 21.7289Z" fill="#763AED"/>
<path d="M12.9615 21.7289C13.4381 21.9228 13.5561 22.4524 13.2968 22.8815C13.0817 23.3812 12.4696 24.7845 10.9128 25.6543C9.84991 26.2481 8.5286 26.5236 6.97852 26.5174C7.36591 25.2021 8.11015 23.6988 9.15796 22.9653C10.0555 22.337 11.6727 23.1015 12.9615 21.7289Z" fill="#763AED"/>
<path d="M13.6216 11.7538C12.9329 10.7603 12.1373 10.072 11.264 9.60577C10.2108 12.544 10.4087 14.8376 11.8717 16.4794C12.3861 14.683 12.9481 13.0393 13.6216 11.7538Z" fill="#763AED"/>
<path d="M14.8686 20.3772C13.2359 20.1422 12.2427 19.0349 11.8195 17.15C10.6479 16.8958 9.75396 16.2613 9.06376 15.3477C8.59224 19.6752 12.6368 22.0747 14.8686 20.3772Z" fill="#763AED"/>
<path d="M10.2267 15.1486L8.50833 13.9541C8.2934 14.888 8.25982 15.914 8.35116 17.0033C5.81747 14.6486 4.55647 11.5657 4.90387 7.56253C6.79983 8.49783 8.53438 9.81158 10.1115 11.4709C9.86616 12.6357 9.93624 13.8684 10.2267 15.1486Z" fill="#763AED"/>
<path d="M12.7625 21.5193C10.2202 20.756 8.2985 19.135 6.98911 16.668C5.48328 15.869 4.0878 15.6953 2.81885 16.2384C5.34418 20.8741 9.0009 22.7767 12.7625 21.5193Z" fill="#763AED"/>
<path d="M9.02161 22.127C7.55081 22.3034 6.36742 21.589 5.36477 20.3143C3.0627 20.6372 1.09609 21.1871 0 22.3261C3.99214 23.7407 7.33522 24.3462 9.02161 22.127Z" fill="#763AED"/>
</svg>
